<svg viewBox="0 0 64 64" xmlns="http://www.w3.org/2000/svg"><path d="M2.338 19.818a1 1 0 0 0 1.414 0l.767-.767.767.767A1 1 0 1 0 6.7 18.404l-.767-.767.767-.767a1 1 0 0 0-1.414-1.414l-.767.767-.767-.767a1 1 0 1 0-1.414 1.414l.767.767-.767.767a1 1 0 0 0 0 1.414ZM55 55a3 3 0 1 0 3 3 3.003 3.003 0 0 0-3-3Zm0 4a1 1 0 1 1 1-1 1.001 1.001 0 0 1-1 1Z" fill="#e5989b" class="fill-000000"></path><circle cx="12" cy="55" r="1" fill="#e5989b" class="fill-000000"></circle><path d="M20 22a9 9 0 1 0 9 9 9.01 9.01 0 0 0-9-9Zm0 16a6.98 6.98 0 0 1-6.591-9.335 33.664 33.664 0 0 1 13.182 0A6.98 6.98 0 0 1 20 38ZM32 40h-2a3 3 0 0 0 0 6h2a3 3 0 0 0 0-6Z" fill="#e5989b" class="fill-000000"></path><circle cx="20" cy="31" r="1" fill="#e5989b" class="fill-000000"></circle><path d="M51 31a9 9 0 1 0-9 9 9.01 9.01 0 0 0 9-9Zm-9 7a6.98 6.98 0 0 1-6.591-9.335 33.664 33.664 0 0 1 13.182 0A6.98 6.98 0 0 1 42 38Z" fill="#e5989b" class="fill-000000"></path><circle cx="42" cy="31" r="1" fill="#e5989b" class="fill-000000"></circle><path d="m59.1 44.005-5.636-.564c.224-.594.422-1.2.6-1.816l5.06-.633a1 1 0 0 0-.248-1.984l-4.313.539a23.968 23.968 0 0 0-7.837-22.674c-.427-2.903-1.373-8.147-2.894-10.428a1 1 0 0 0-1.148-.394c-.32.107-2.93 1.121-4.977 5.916a24.245 24.245 0 0 0-13.414 0c-2.048-4.795-4.657-5.809-4.977-5.916a.999.999 0 0 0-1.148.394c-1.521 2.281-2.467 7.527-2.894 10.43l-.015.007a23.974 23.974 0 0 0-7.821 22.665l-4.314-.54a1 1 0 1 0-.248 1.985l5.061.633c.177.616.376 1.222.6 1.816l-5.637.564a1 1 0 0 0 .2 1.99l6.258-.626q.499 1.038 1.093 2.018l-1.802.676a1 1 0 1 0 .702 1.873l2.242-.84a23.966 23.966 0 0 0 38.814 0l2.242.84a1 1 0 1 0 .702-1.873l-1.803-.676q.593-.98 1.093-2.018l6.259.626c.034.003.067.005.1.005a1 1 0 0 0 .1-1.995Zm-9.463 2.665-4.285-1.607a1 1 0 0 0-.703 1.873l3.81 1.429a21.966 21.966 0 0 1-34.917 0l3.81-1.429a1 1 0 0 0-.703-1.873l-4.285 1.607q-.464-.738-.87-1.514l1.606-.16a1 1 0 0 0-.2-1.99l-2.295.23q-.267-.66-.491-1.338l8.762 1.095a.985.985 0 0 0 .125.007 1 1 0 0 0 .123-1.992l-9.588-1.199a21.946 21.946 0 0 1 5.714-20.158.993.993 0 0 0 1.744-.54c.243-2.19 1.107-7.923 2.388-10.727.898.684 2.465 2.32 3.67 5.933a.998.998 0 0 0 1.264.632.987.987 0 0 0 .654-1.095 22.25 22.25 0 0 1 12.06 0 .987.987 0 0 0 .654 1.095.998.998 0 0 0 1.265-.632c1.206-3.62 2.777-5.255 3.668-5.935 1.282 2.804 2.145 8.539 2.39 10.729a1 1 0 0 0 .991.89.981.981 0 0 0 .752-.35 21.947 21.947 0 0 1 5.714 20.16l-9.588 1.197A1 1 0 0 0 42.999 43a.985.985 0 0 0 .125-.008l8.762-1.095q-.224.679-.49 1.337l-2.296-.23a1 1 0 1 0-.2 1.99l1.606.161q-.406.777-.87 1.515Z" fill="#e5989b" class="fill-000000"></path></svg>